<?xml version="1.0" encoding="utf-8" ?>
<svg baseProfile="full" height="200mm" version="1.1" viewBox="0,0,200,200" width="200mm" xmlns="http://www.w3.org/2000/svg" xmlns:ev="http://www.w3.org/2001/xml-events" xmlns:xlink="http://www.w3.org/1999/xlink"><defs /><rect fill="#1a1a1a" height="200" width="200" x="0" y="0" /><rect fill="#1a1a1a" height="200" width="180" x="10" y="0" /><text alignment-baseline="middle" fill="#e1ed5e" style="dominant-baseline: central; font-size:9.0px; font-family:Arial;" text-anchor="middle" x="100.0" y="100.0">2026</text><line stroke="#e1ed5e" stroke-width="0.3" x1="100.0" x2="100.0" y1="15.0" y2="10.0" /><path d="M 100.0 14.0 a86.0,86.0 0 0,1 42.46469731375804,11.215312516191453" fill="none" id="id37" stroke="none" /><text fill="#e1ed5e" style="font-size:6.75px; font-family:Arial;" text-anchor="middle"><textPath startOffset="22.20632615414155" xlink:href="#id37">January</textPath></text><path d="M 100.0 79.0 l 0.0 -14.142441449269505 a35.142441449269505,35.142441449269505 0 0,0 0.6049193608518432,0.005206731918709847 l -0.24343888157931484 14.140346093959353" fill="#ff7f0b" stroke="none" /><path d="M 100.36148047927253 79.00311137660856 l 0.2276610442638853 -13.223877538045166 a34.2258370885283,34.2258370885283 0 0,0 0.5889669481882743,0.015211278649951006 l -0.45525462764702745 13.217999467252854" fill="#ff720a" stroke="none" /><path d="M 101.08401301168833 79.027996857942 l 0.3613011622201244 -6.989961400470923 a27.99929274354881,27.99929274354881 0 0,0 0.48110511559628927,0.02902157441384922 l -0.4815683266560256 6.98270655667677" fill="#ff1302" stroke="none" /><path d="M 101.44485096284872 79.0497635885617 l 1.1388416484506452 -16.513123072010075 a37.55234708105159,37.55234708105159 0 0,0 0.6444873476419736,0.05002462208572371 l -1.4229191854549599 16.491073187735886" fill="#ffa20e" stroke="none" /><path d="M 103.2404852339499 79.25152402106235 l 0.9816338461038863 -6.285295196723468 a27.36148887586639,27.36148887586639 0 0,0 0.46471637897988577,0.07668218437526786 l -1.0896794312226472 6.267466749408576" fill="#ff0901" stroke="none" /><path d="M 103.59715602781102 79.31037775812273 l 1.0892432977700865 -6.264958257613736 a27.358942752642108,27.358942752642108 0 0,0 0.46328445353837927,0.08466227264443561 l -1.1969228724113667 6.245280503618561" fill="#ff0901" stroke="none" /><path d="M 104.307194497241 79.44645832069477 l 2.6108455419350203 -12.458718244268567 a33.72934305979348,33.72934305979348 0 0,0 0.567226805289894,0.12397380963379928 l -2.824915071378442 12.411930936538898" fill="#ff6a09" stroke="none" /><path d="M 105.01212808612495 79.60689891045804 l 1.3828295996582909 -5.626389296296873 a26.793830703012915,26.793830703012915 0 0,0 0.4469352730163662,0.1139337525208405 l -1.479473761359682 5.601752547607165" fill="#ff0000" stroke="none" /><path d="M 105.36241919743992 79.69619591428918 l 2.5265254714876493 -9.566219331590792 a30.894234849556447,30.894234849556447 0 0,0 0.5129945191837488,0.14022078057314738 l -2.6908178798951092 9.521312010191352" fill="#ff4006" stroke="none" /><path d="M 107.76421540070413 80.48803036053334 l 2.353410613101663 -5.91427131553741 a27.36530806070281,27.36530806070281 0 0,0 0.4361719057904835,0.17792547199627218 l -2.454866388480534 5.8728849573575586" fill="#ff0901" stroke="none" /><path d="M 108.09893153111575 80.62456947434976 l 4.356896866275253 -10.423196222318198 a32.29714874613535,32.29714874613535 0 0,0 0.5110889097810919,0.21882159852648075 l -4.535669533846661 10.346655095828927" fill="#ff5507" stroke="none" /><path d="M 108.43124777332544 80.76684994638697 l 4.134441160613663 -9.431383036979964 a31.29779538060501,31.29779538060501 0 0,0 0.4915510747186351,0.22054463885634115 l -4.296174353799078 9.358818067607093" fill="#ff4606" stroke="none" /><path d="M 109.08828744355905 81.06846463323043 l 2.755796772724434 -5.7405165043978 a27.367726877765875,27.367726877765875 0 0,0 0.4229339870688529,0.20753187067254675 l -2.8542020268037183 5.692229473590421" fill="#ff0901" stroke="none" /><path d="M 109.41281617654863 81.2277094730956 l 2.86624218409706 -5.716241557377137 a27.394588477782044,27.394588477782044 0 0,0 0.4197105495022995,0.21499204510126327 l -2.964213221188115 5.666056986963373" fill="#ff0901" stroke="none" /><path d="M 109.73455568895987 81.39251694778311 l 4.723325940885437 -9.028579239091405 a31.189457837411844,31.189457837411844 0 0,0 0.47356729178834067,0.25296324659942054 l -4.878038279202089 8.945937265990231" fill="#ff4406" stroke="none" /><path d="M 110.36928655335952 81.73862282372117 l 4.401252656172451 -7.751057354705308 a29.91346818356336,29.91346818356336 0 0,0 0.44557288529109806,0.2581045749003194 l -4.534022273928877 7.674148622414939" fill="#ff3104" stroke="none" /><line stroke="#e1ed5e" stroke-width="0.3" x1="143.23703022742887" x2="145.7803849466894" y1="26.81831364943548" y2="22.513508569990506" /><path d="M 143.74570117128098 25.957352633546492 a86.0,86.0 0 0,1 28.547481713284135,27.462654790039103" fill="none" id="id38" stroke="none" /><text fill="#e1ed5e" style="font-size:6.75px; font-family:Arial;" text-anchor="middle"><textPath startOffset="19.985693538727396" xlink:href="#id38">February</textPath></text><path d="M 110.68208982089419 81.91981866633111 l 6.475241219677931 -10.959796949284975 a33.72972497827712,33.72972497827712 0 0,0 0.49733344520576517,0.299637836034574 l -6.662936731101334 10.846712503791785" fill="#ff6a09" stroke="none" /><path d="M 110.99172775467656 82.1063720568725 l 3.3310352443446622 -5.422651166227151 a27.36403499909067,27.36403499909067 0 0,0 0.3992293446445931,0.24999737899107372 l -3.4238837413615184 5.364509445913133" fill="#ff0901" stroke="none" /><path d="M 111.2981086023043 82.29822771554956 l 6.932696785369333 -10.862085339374424 a33.88592963808677,33.88592963808677 0 0,0 0.48897876391876405,0.31804538988197323 l -7.118642575072378 10.741141025332922" fill="#ff6d0a" stroke="none" /><path d="M 111.90073688211348 82.69761687909136 l 7.212875332915353 -10.486739909444118 a33.72781538585891,33.72781538585891 0 0,0 0.4755121840773453,0.33312667292794657 l -7.39231865657635 10.361028393752235" fill="#ff6a09" stroke="none" /><path d="M 112.48926042617603 83.11751280151076 l 7.581836880861243 -10.248826568937579 a33.74843898397559,33.74843898397559 0 0,0 0.4640472172034991,0.34951074328994414 l -7.757130251823124 10.116799236141787" fill="#ff6a09" stroke="none" /><path d="M 112.77801427241765 83.33499621200491 l 8.41866302944016 -10.979566017414518 a34.835633600743634,34.835633600743634 0 0,0 0.47271530936220035,0.3689617970431894 l -8.606410893961788 10.833025831148104" fill="#ff7a0b" stroke="none" /><path d="M 113.6212207817346 84.01681056812373 l 8.303530539553833 -9.743392585268534 a33.80165295936306,33.80165295936306 0 0,0 0.4395924304377146,0.3812102238598447 l -8.470016768638311 9.599017367989019" fill="#ff6b09" stroke="none" /><path d="M 114.16331599549186 84.49514656593476 l 7.7570965118882445 -8.491842201996226 a32.50147513488391,32.50147513488391 0 0,0 0.4098159228930989,0.38087923697638265 l -7.90212031857619 8.357058378945203" fill="#ff5808" stroke="none" /><path d="M 114.68862486808459 84.99185889309783 l 7.12184745660116 -7.276766377412469 a31.181946773900215,31.181946773900215 0 0,0 0.3803665925981565,0.378733177569435 l -7.2460498493666385 7.153097349192915" fill="#ff4406" stroke="none" /><path d="M 116.15771136456269 86.58626213691792 l 9.800708020312706 -8.136308743910943 a33.737872572594824,33.737872572594824 0 0,0 0.3671026074748516,0.45002439006326084 l -9.939309119863967 7.966400184239582" fill="#ff6a09" stroke="none" /><path d="M 116.38621287248628 86.86637796730983 l 6.954546223469385 -5.574099532252747 a29.912704346596076,29.912704346596076 0 0,0 0.318564488834067,0.4045445500889188 l -7.049464792897416 5.45356258821079" fill="#ff3104" stroke="none" /><line stroke="#e1ed5e" stroke-width="0.3" x1="172.23445277983987" x2="176.4835382374775" y1="55.19839476539836" y2="52.563006222186495" /><path d="M 173.08426987136738 54.67131705675599 a86.0,86.0 0 0,1 12.851231095245387,41.99856678651699" fill="none" id="id39" stroke="none" /><text fill="#e1ed5e" style="font-size:6.75px; font-family:Arial;" text-anchor="middle"><textPath startOffset="22.20632615414155" xlink:href="#id39">March</textPath></text><path d="M 118.03404312379186 89.2402003453031 l 5.463017367566508 -3.2594450385669207 a27.36148887586639,27.36148887586639 0 0,0 0.23783690887510328,0.4065403732342946 l -5.5183139509119385 3.1649252529787306" fill="#ff0901" stroke="none" /><path d="M 118.3937258080291 89.86733742301442 l 5.577550659269803 -3.0725389421513887 a27.367854183927093,27.367854183927093 0 0,0 0.22375423357858729,0.4145826124424544 l -5.629612992066855 2.9760753463764753" fill="#ff0901" stroke="none" /><path d="M 118.73160827565052 90.50648371742162 l 10.040167774818794 -5.08853777248611 a32.25602885606321,32.25602885606321 0 0,0 0.2467432408386899,0.49741931705415515 l -10.126271028610892 4.914958866933005" fill="#ff5407" stroke="none" /><path d="M 118.89224826269711 90.83032412892265 l 14.952847817675764 -7.257620476455581 a37.62109240810718,37.62109240810718 0 0,0 0.27775438650472056,0.5850215741788327 l -15.07556039802224 6.999156486636208" fill="#ffa30f" stroke="none" /><path d="M 119.04729006885535 91.15688171328212 l 11.543380614202539 -5.359265272434296 a33.7267969365692,33.7267969365692 0 0,0 0.23993834850338694,0.5286723458938819 l -11.633921279669272 5.159770917698351" fill="#ff6a09" stroke="none" /><path d="M 119.34039704204932 91.81776055985345 l 10.548561370904546 -4.462724043263795 a32.453735324428635,32.453735324428635 0 0,0 0.21323388830030907,0.5163627740795014 l -10.623816946091052 4.28048669873099" fill="#ff5708" stroke="none" /><path d="M 119.47837535516314 92.15188598940014 l 10.756068529725843 -4.333772739662176 a32.59631822498838,32.59631822498838 0 0,0 0.2052115961643879,0.5222411287395724 l -10.829073675771932 4.147982606026819" fill="#ff5908" stroke="none" /><path d="M 119.61058180528143 92.48833698450437 l 5.940714026259735 -2.2755389044435854 a27.361616182027603,27.361616182027603 0 0,0 0.16468489221847468,0.44127363496840666 l -5.979003506979835 2.1729421324458453" fill="#ff0901" stroke="none" /><path d="M 119.85752413597 93.16781622104841 l 12.037422712892194 -4.141598098346618 a33.729979590599555,33.729979590599555 0 0,0 0.18417003528005277,0.5506449638828058 l -12.106930041944018 3.933780031541499" fill="#ff6a09" stroke="none" /><path d="M 119.97218684219823 93.5106431181261 l 6.054857387545159 -1.9673424230947418 a27.366453816153737,27.366453816153737 0 0,0 0.14171198958177933,0.44926573326752794 l -6.087824860895144 1.8628265234007948" fill="#ff0901" stroke="none" /><path d="M 120.37134235888165 94.90015583598534 l 9.671519854724371 -2.421207361760506 a30.969982015478813,30.969982015478813 0 0,0 0.12501136435356774,0.5182528121658022 l -9.711764019338759 2.2543693179352973" fill="#ff4106" stroke="none" /><path d="M 120.45610955862082 95.25157060432595 l 8.89144455323487 -2.063950457715135 a30.12785175904783,30.12785175904783 0 0,0 0.11291576385750475,0.5061792288168855 l -8.925654704094411 1.9105930593482854" fill="#ff3404" stroke="none" /><path d="M 120.53481517161879 95.60439243477599 l 12.453591305405933 -2.665770288106033 a33.73570836785419,33.73570836785419 0 0,0 0.11666242354666198,0.5688874090299458 l -12.497633024867591 2.4510072229126756" fill="#ff6a09" stroke="none" /><path d="M 120.6074358757038 95.95851677861258 l 6.246317985239696 -1.2250136060139314 a27.36530806070281,27.36530806070281 0 0,0 0.08667541217339712,0.4630235176646738 l -6.266479121322952 1.1173120108866947" fill="#ff0901" stroke="none" /><path d="M 120.73433829027371 96.67025291283417 l 6.035277464834151 -0.9692109426128113 a27.112605330692908,27.112605330692908 0 0,0 0.0700332882236339,0.46143186716918144 l -6.051066646497085 0.8651799630515477" fill="#ff0500" stroke="none" /><path d="M 120.78858239683441 97.02765380044208 l 12.597787674347355 -1.8012284629078805 a33.7259057934407,33.7259057934407 0 0,0 0.07722268980700622,0.5753987353830894 l -12.626926363212197 1.584111385460127" fill="#ff6a09" stroke="none" /><path d="M 120.83666639777658 97.38593545837742 l 6.570958348732014 -0.8243597558260133 a27.622466506355202,27.622466506355202 0 0,0 0.05512608668816834,0.4722866458104221 l -6.584174788423772 0.7111293716907384" fill="#ff0d01" stroke="none" /><path d="M 120.91429891909075 98.10471618934814 l 16.685119755202436 -1.5120295197634852 a37.753490815769794,37.753490815769794 0 0,0 0.053080538283407974,0.6477170151307704 l -16.70867477730534 1.224598587424946" fill="#ffa40f" stroke="none" /><path d="M 120.94382443527127 98.46500227214037 l 6.360977251846489 -0.4662035655774303 a27.378038676824218,27.378038676824218 0 0,0 0.030401889590561653,0.4703037757711505 l -6.368059732441466 0.35664072555324455" fill="#ff0901" stroke="none" /><line stroke="#e1ed5e" stroke-width="0.3" x1="184.98032266829074" x2="189.97916517819016" y1="98.17113171792111" y2="98.06355123074" /><path d="M 185.9800911702706 98.14961562048488 a86.0,86.0 0 0,1 -9.607161424134198,41.387399972396054" fill="none" id="id40" stroke="none" /><text fill="#e1ed5e" style="font-size:6.75px; font-family:Arial;" text-anchor="middle"><textPath startOffset="21.466115282336823" xlink:href="#id40">April</textPath></text><path d="M 120.99513854157772 99.54816195383933 l 8.196618841782316 -0.1764000859180006 a29.198516782185223,29.198516782185223 0 0,0 0.0064890128569391175,0.5025811969130023 l -8.19844086175697 0.035282630944535605" fill="#ff2603" stroke="none" /><path d="M 120.99980553446 99.90962569577887 l 12.72731560798374 -0.05477299733975071 a33.72743346737527,33.72743346737527 0 0,0 -0.0024985647458715472,0.5805784534748568 l -12.726372745948366 -0.16431493433879085" fill="#ff6a09" stroke="none" /><path d="M 120.9904718944345 100.63252640178507 l 30.888149355486114 0.9307827888712564 a51.902170266938796,51.902170266938796 0 0,0 -0.034596175434801944,0.8927735633224488 l -30.86755104720011 -1.4623335992077116" fill="#a0ff22" stroke="none" /><path d="M 120.9764740272857 100.99374915477107 l 6.841398565287679 0.324107570836886 a27.849071473316226,27.849071473316226 0 0,0 -0.026806255184272935,0.47864369373886423 l -6.834805959215877 -0.4418229809111736" fill="#ff1101" stroke="none" /><path d="M 120.95626037817324 101.35467743843564 l 10.15921492465753 0.6567230508829874 a31.180419099965647,31.180419099965647 0 0,0 -0.03923304642425273,0.5353037476584196 l -10.14640531956894 -0.8314999350381773" fill="#ff4406" stroke="none" /><path d="M 120.89721153311464 102.0752229133903 l 62.69163459934395 6.2256687401709 a84.0,84.0 0 0,0 -0.15527079399579247,1.4376147124608343 l -62.575181503847105 -7.303879774516526" fill="#4dd2ff" stroke="none" /><path d="M 120.81339534386255 102.79330883721812 l 6.308746340613457 0.8466795836941357 a27.36530806070281,27.36530806070281 0 0,0 -0.06667485505470991,0.46632378096064303 l -6.293237434542146 -0.955148836635188" fill="#ff0901" stroke="none" /><path d="M 120.76222939487914 103.15116336523771 l 12.612906466309374 1.9143092983842447 a33.757350415260575,33.757350415260575 0 0,0 -0.09213867158161751,0.5737475958919624 l -12.578086040366468 -2.131136123969412" fill="#ff6b09" stroke="none" /><path d="M 120.70491114924044 103.5080841355445 l 6.272098188175953 1.0626970573271282 a27.36148887586639,27.36148887586639 0 0,0 -0.08267541962240164,0.46368765918773713 l -6.252876326214363 -1.1705034672480836" fill="#ff0901" stroke="none" /><path d="M 120.64145759157962 103.86396538481128 l 10.33570299765167 1.9347857792226777 a31.515234303958614,31.515234303958614 0 0,0 -0.1044055696578119,0.5323617503603203 l -10.300867495018194 -2.112411256650943" fill="#ff4906" stroke="none" /><path d="M 120.49622156327973 104.57218783832717 l 12.653963870668894 2.8227788003500542 a33.9649867642007,33.9649867642007 0 0,0 -0.13220375220390615,0.5695303044007721 l -12.603499552534435 -3.0401777620993915" fill="#ff6e0a" stroke="none" /><path d="M 120.41448212921028 104.9243191809786 l 12.473431328246436 3.00880310132459 a33.831187988764725,33.831187988764725 0 0,0 -0.14142835854144659,0.5649359898939521 l -12.419791655409929 -3.223066930615938" fill="#ff6c09" stroke="none" /><path d="M 120.32669344350535 105.2749913415812 l 25.99666083482322 6.746407682826117 a47.857780831329436,47.857780831329436 0 0,0 -0.2137919277047921,0.7955992955387883 l -25.876680830776653 -7.192897911540454" fill="#d2ff1c" stroke="none" /><path d="M 120.23288151984713 105.62410040840565 l 18.42411825184131 5.121321492593695 a40.122658475963384,40.122658475963384 0 0,0 -0.19069222588597615,0.6638246547788667 l -18.333233389069235 -5.437703622877143" fill="#ffc612" stroke="none" /><path d="M 120.13307415673323 105.97154293290107 l 19.168182124936507 5.685352451078345 a40.993559924828745,40.993559924828745 0 0,0 -0.20647719712916157,0.6747794269087722 l -19.067478155301213 -6.014458850539175" fill="#ffd213" stroke="none" /><line stroke="#e1ed5e" stroke-width="0.3" x1="174.80103733775053" x2="179.2010983576182" y1="140.37084112569926" y2="142.7455964860345" /><path d="M 175.68104954172406 140.8457921977663 a86.0,86.0 0 0,1 -30.038265399797805,32.042727171017184" fill="none" id="id41" stroke="none" /><text fill="#e1ed5e" style="font-size:6.75px; font-family:Arial;" text-anchor="middle"><textPath startOffset="22.206326154141568" xlink:href="#id41">May</textPath></text><line stroke="#e1ed5e" stroke-width="0.3" x1="143.8653032363475" x2="146.44561519142675" y1="172.8068346515853" y2="177.08958963109032" /><path d="M 144.38136562736335 173.6633856474863 a86.0,86.0 0 0,1 -40.68145358897372,12.25698825130547" fill="none" id="id42" stroke="none" /><text fill="#e1ed5e" style="font-size:6.75px; font-family:Arial;" text-anchor="middle"><textPath startOffset="21.466115282336833" xlink:href="#id42">June</textPath></text><line stroke="#e1ed5e" stroke-width="0.3" x1="102.19456741930631" x2="102.32365962044197" y1="184.97166512339345" y2="189.96999836594603" /><path d="M 102.22038585953345 185.97133177190398 a86.0,86.0 0 0,1 -42.740103519485714,-10.115201625700543" fill="none" id="id43" stroke="none" /><text fill="#e1ed5e" style="font-size:6.75px; font-family:Arial;" text-anchor="middle"><textPath startOffset="22.20632615414155" xlink:href="#id43">July</textPath></text><line stroke="#e1ed5e" stroke-width="0.3" x1="58.666819895761336" x2="56.23545636021788" y1="174.27360380694188" y2="178.64263932499728" /><path d="M 58.180547188652646 175.14741091055294 a86.0,86.0 0 0,1 -31.652253787137756,-30.449443065178592" fill="none" id="id44" stroke="none" /><text fill="#e1ed5e" style="font-size:6.75px; font-family:Arial;" text-anchor="middle"><textPath startOffset="22.20632615414155" xlink:href="#id44">August</textPath></text><line stroke="#e1ed5e" stroke-width="0.3" x1="26.63291911575756" x2="22.317208475507996" y1="142.92168965132927" y2="145.44649492493687" /><path d="M 25.769776987707644 143.4266507060508 a86.0,86.0 0 0,1 -11.730757126820373,-40.83630448921669" fill="none" id="id45" stroke="none" /><text fill="#e1ed5e" style="font-size:6.75px; font-family:Arial;" text-anchor="middle"><textPath startOffset="21.46611528233685" xlink:href="#id45">September</textPath></text><line stroke="#e1ed5e" stroke-width="0.3" x1="15.007084014347285" x2="10.007500721073583" y1="101.09737516637583" y2="101.16192664675087" /><path d="M 14.007167355692545 101.11028546245083 a86.0,86.0 0 0,1 10.666146001902534,-42.60595125391555" fill="none" id="id46" stroke="none" /><text fill="#e1ed5e" style="font-size:6.75px; font-family:Arial;" text-anchor="middle"><textPath startOffset="22.20632615414155" xlink:href="#id46">October</textPath></text><line stroke="#e1ed5e" stroke-width="0.3" x1="26.266209847984243" x2="21.928928074336255" y1="57.711370442889674" y2="55.22380399835377" /><path d="M 25.398753493254645 57.213857153982495 a86.0,86.0 0 0,1 29.58750427330803,-30.492523968695096" fill="none" id="id47" stroke="none" /><text fill="#e1ed5e" style="font-size:6.75px; font-family:Arial;" text-anchor="middle"><textPath startOffset="21.46611528233685" xlink:href="#id47">November</textPath></text><line stroke="#e1ed5e" stroke-width="0.3" x1="56.762969772571076" x2="54.21961505331055" y1="26.818313649435495" y2="22.513508569990535" /><path d="M 56.25429882871897 25.957352633546506 a86.0,86.0 0 0,1 42.265352541879196,-11.944610805530505" fill="none" id="id48" stroke="none" /><text fill="#e1ed5e" style="font-size:6.75px; font-family:Arial;" text-anchor="middle"><textPath startOffset="22.20632615414155" xlink:href="#id48">December</textPath></text></svg>