<?xml version="1.0" encoding="utf-8" ?>
<svg baseProfile="full" height="200mm" version="1.1" viewBox="0,0,200,200" width="200mm" xmlns="http://www.w3.org/2000/svg" xmlns:ev="http://www.w3.org/2001/xml-events" xmlns:xlink="http://www.w3.org/1999/xlink"><defs /><rect fill="#1a1a1a" height="200" width="200" x="0" y="0" /><rect fill="#1a1a1a" height="200" width="180" x="10" y="0" /><text alignment-baseline="middle" fill="#e1ed5e" style="dominant-baseline: central; font-size:9.0px; font-family:Arial;" text-anchor="middle" x="100.0" y="100.0">2025</text><line stroke="#e1ed5e" stroke-width="0.3" x1="100.0" x2="100.0" y1="15.0" y2="10.0" /><path d="M 100.0 14.0 a86.0,86.0 0 0,1 42.46469731375804,11.215312516191453" fill="none" id="id25" stroke="none" /><text fill="#e1ed5e" style="font-size:6.75px; font-family:Arial;" text-anchor="middle"><textPath startOffset="22.20632615414155" xlink:href="#id25">January</textPath></text><line stroke="#e1ed5e" stroke-width="0.3" x1="143.23703022742887" x2="145.7803849466894" y1="26.81831364943548" y2="22.513508569990506" /><path d="M 143.74570117128098 25.957352633546492 a86.0,86.0 0 0,1 28.547481713284135,27.462654790039103" fill="none" id="id26" stroke="none" /><text fill="#e1ed5e" style="font-size:6.75px; font-family:Arial;" text-anchor="middle"><textPath startOffset="19.985693538727396" xlink:href="#id26">February</textPath></text><line stroke="#e1ed5e" stroke-width="0.3" x1="172.23445277983987" x2="176.4835382374775" y1="55.19839476539836" y2="52.563006222186495" /><path d="M 173.08426987136738 54.67131705675599 a86.0,86.0 0 0,1 12.851231095245387,41.99856678651699" fill="none" id="id27" stroke="none" /><text fill="#e1ed5e" style="font-size:6.75px; font-family:Arial;" text-anchor="middle"><textPath startOffset="22.20632615414155" xlink:href="#id27">March</textPath></text><line stroke="#e1ed5e" stroke-width="0.3" x1="184.98032266829074" x2="189.97916517819016" y1="98.17113171792111" y2="98.06355123074" /><path d="M 185.9800911702706 98.14961562048488 a86.0,86.0 0 0,1 -9.607161424134198,41.387399972396054" fill="none" id="id28" stroke="none" /><text fill="#e1ed5e" style="font-size:6.75px; font-family:Arial;" text-anchor="middle"><textPath startOffset="21.466115282336823" xlink:href="#id28">April</textPath></text><path d="M 119.9155931802556 106.66101706037122 l 14.146782370243276 4.7315667610127345 a35.91707663870326,35.91707663870326 0 0,0 -0.201151311353628,0.584639867635351 l -14.063240227946416 -4.974379331737386" fill="#ff0000" stroke="none" /><line stroke="#e1ed5e" stroke-width="0.3" x1="174.80103733775053" x2="179.2010983576182" y1="140.37084112569926" y2="142.7455964860345" /><path d="M 175.68104954172406 140.8457921977663 a86.0,86.0 0 0,1 -30.038265399797805,32.042727171017184" fill="none" id="id29" stroke="none" /><text fill="#e1ed5e" style="font-size:6.75px; font-family:Arial;" text-anchor="middle"><textPath startOffset="22.206326154141568" xlink:href="#id29">May</textPath></text><path d="M 112.04921762599082 117.19931262002967 l 12.86266402565248 18.360443521777164 a43.417716479454,43.417716479454 0 0,0 -0.6157937113714743,0.42354852978814717 l -12.544713429658122 -18.579132840930402" fill="#ff870c" stroke="none" /><path d="M 111.7513745106137 117.40417183066458 l 8.35111187317607 12.368271123227865 a35.92364567041092,35.92364567041092 0 0,0 -0.5154620644759692,0.3416201490473977 l -8.136975109960137 -12.510189293366581" fill="#ff0000" stroke="none" /><path d="M 111.1453310114006 117.79835938074945 l 22.300170338750075 35.61190291566989 a63.017915541020905,63.017915541020905 0 0,0 -0.924325179216355,0.5677960198474449 l -21.68386595960141 -35.990487402345714" fill="#4fff2b" stroke="none" /><line stroke="#e1ed5e" stroke-width="0.3" x1="143.8653032363475" x2="146.44561519142675" y1="172.8068346515853" y2="177.08958963109032" /><path d="M 144.38136562736335 173.6633856474863 a86.0,86.0 0 0,1 -40.68145358897372,12.25698825130547" fill="none" id="id30" stroke="none" /><text fill="#e1ed5e" style="font-size:6.75px; font-family:Arial;" text-anchor="middle"><textPath startOffset="21.466115282336833" xlink:href="#id30">June</textPath></text><path d="M 110.5260780823613 118.17145234162733 l 9.92067518398007 17.126328998503734 a40.792193942840896,40.792193942840896 0 0,0 -0.610622688853411,0.3467274990042206 l -9.62440372820546 -17.294559663302582" fill="#ff5908" stroke="none" /><path d="M 110.21172684928248 118.3499491758327 l 9.143074643812293 16.429635996049836 a39.80236030143609,39.80236030143609 0 0,0 -0.6015410092124147,0.32800812058044354 l -8.858910822731229 -16.58458476839005" fill="#ff4806" stroke="none" /><path d="M 109.57404056367764 118.69057910512821 l 13.61493093894007 26.579263168211188 a50.863415327740654,50.863415327740654 0 0,0 -0.782681614527056,0.3924528097276531 l -13.155395416730252 -26.809683818848146" fill="#fcff18" stroke="none" /><path d="M 109.2508944713604 118.85261126421891 l 6.574146248806946 13.397604308057174 a35.92364567041092,35.92364567041092 0 0,0 -0.5574790972969146,0.26762384465147065 l -6.342554483509799 -13.508782429208205" fill="#ff0000" stroke="none" /><path d="M 108.92500713936063 119.00905698771935 l 8.96840757220097 19.10149403435378 a42.102118583819134,42.102118583819134 0 0,0 -0.6586615905133274,0.30235923089371314 l -8.638277985920222 -19.25304033558157" fill="#ff700a" stroke="none" /><path d="M 108.2653958097858 119.30500536409082 l 11.77287111112317 27.497211891764504 a50.91148869614673,50.91148869614673 0 0,0 -0.8085921199827298,0.3379915717315437 l -11.29780753164298 -27.69578850651602" fill="#fcff18" stroke="none" /><path d="M 107.93186726928326 119.44442032107085 l 7.511195224431469 18.413172094174865 a40.886250533200624,40.886250533200624 0 0,0 -0.6539442777987665,0.2602179240079196 l -7.193129870590837 -18.539736862588853" fill="#ff5b08" stroke="none" /><path d="M 107.2578585660854 119.70592522655815 l 10.329007022316052 28.044448399348852 a50.88610834636712,50.88610834636712 0 0,0 -0.8245498717116535,0.2956542479165362 l -9.844737589974665 -28.218090188305347" fill="#fcff18" stroke="none" /><path d="M 106.57524785965236 119.94407469862006 l 6.076845380769855 18.432317806563415 a40.4082041802929,40.4082041802929 0 0,0 -0.6624610563086609,0.21209911039938242 l -5.758662979370254 -18.534189763622503" fill="#ff5207" stroke="none" /><path d="M 106.2309692047433 120.05430185196036 l 7.975250758887856 25.668251729130773 a47.87868619365847,47.87868619365847 0 0,0 -0.7891434039308326,0.2377624341623079 l -7.532232380516777 -25.80172953239881" fill="#ffd213" stroke="none" /><path d="M 105.53697534728816 120.25689768951611 l 7.956380855570716 29.108237415046034 a51.17604151855538,51.17604151855538 0 0,0 -0.851738838562415,0.22495196859817204 l -7.454151574196803 -29.24088073294779" fill="#f8ff18" stroke="none" /><path d="M 104.83641907484287 120.43548508189849 l 3.4415388741587676 14.541650595886429 a35.943352765533916,35.943352765533916 0 0,0 -0.6033003625292882,0.1373091983343191 l -3.1907183622366175 -14.598736527798433" fill="#ff0000" stroke="none" /><path d="M 104.13013068566511 120.58985236759428 l 6.495574507911522 32.382248974542904 a54.02729987203185,54.02729987203185 0 0,0 -0.9134019596103484,0.17505565947430934 l -5.937204933729469 -32.48926183236568" fill="#ccff1d" stroke="none" /><path d="M 103.7750983002368 120.6578951692458 l 2.7300085248122308 14.939009644644413 a36.186406938717475,36.186406938717475 0 0,0 -0.613706002378818,0.10670065504108149 l -2.4724535509613625 -14.983788878206502" fill="#ff0500" stroke="none" /><path d="M 103.06178313531738 120.77559828337769 l 4.353887833969727 29.54311935618659 a50.86222095833926,50.86222095833926 0 0,0 -0.8672527197104407,0.1201933245270877 l -3.844706523072456 -29.613687246206283" fill="#fcff18" stroke="none" /><path d="M 101.98527174616119 120.90594882070398 l 1.410550677600948 14.853835668570705 a35.92065974690743,35.92065974690743 0 0,0 -0.6160490342057803,0.053155302870422166 l -1.154657325653626 -14.87591522371979" fill="#ff0000" stroke="none" /><path d="M 100.90346689309514 120.98055641714683 l 1.1006546765305247 25.55970530102574 a46.58339257784729,46.58339257784729 0 0,0 -0.801411032777442,0.027602216373455262 l -0.6605232920784304 -25.57486431582529" fill="#ffbd11" stroke="none" /><line stroke="#e1ed5e" stroke-width="0.3" x1="102.19456741930631" x2="102.32365962044197" y1="184.97166512339345" y2="189.96999836594603" /><path d="M 102.22038585953345 185.97133177190398 a86.0,86.0 0 0,1 -42.740103519485714,-10.115201625700543" fill="none" id="id31" stroke="none" /><text fill="#e1ed5e" style="font-size:6.75px; font-family:Arial;" text-anchor="middle"><textPath startOffset="22.20632615414155" xlink:href="#id31">July</textPath></text><path d="M 100.54218724476979 120.99299961872073 l 0.3880111789635794 15.023441828662497 a36.028451585383195,36.028451585383195 0 0,0 -0.6201016530337096,0.010675612313654433 l -0.12934983603720188 -15.027894918255312" fill="#ff0200" stroke="none" /><path d="M 100.18074693466247 120.99922214144158 l 0.15437890466620408 17.935778103745136 a38.93644248542585,38.93644248542585 0 0,0 -0.6702516786573067,0.0 l 0.15437890466619172 -17.935778103745136" fill="#ff3805" stroke="none" /><path d="M 99.81925306533755 120.99922214144158 l -0.12852744133945257 14.93234890538369 a35.93290203327172,35.93290203327172 0 0,0 -0.6184571073315293,-0.010647299967988732 l 0.3855442385636497 -14.927924128136542" fill="#ff0000" stroke="none" /><path d="M 97.2962882734958 120.8252237178851 l -1.9909744108581289 15.335395085301704 a36.46409782454145,36.46409782454145 0 0,0 -0.6217500418635603,-0.08616889040300141 l 2.25465304390852 -15.298851629406096" fill="#ff0a01" stroke="none" /><path d="M 96.93821686468263 120.77559828337769 l -3.06805210690112 20.81813612146679 a42.04299729845016,42.04299729845016 0 0,0 -0.7150595629243047,-0.11167759778612425 l 3.425947533433942 -20.76224021633356" fill="#ff6f0a" stroke="none" /><path d="M 96.22490169976321 120.6578951692458 l -4.077299401194185 22.31158420383779 a43.68107493246126,43.68107493246126 0 0,0 -0.738485534825917,-0.14153251035976963 l 4.460752550591797 -22.238094495129552" fill="#ff8c0c" stroke="none" /><path d="M 95.86986931433489 120.58985236759428 l -2.9403617720923023 14.658522793195583 a35.950518981942274,35.950518981942274 0 0,0 -0.6056952658026707,-0.1269293320137131 l 3.19224849932436 -14.60573748045533" fill="#ff0100" stroke="none" /><path d="M 94.81253420990036 120.34920634021253 l -4.431510481088818 17.383771735053454 a38.939727001279685,38.939727001279685 0 0,0 -0.6480860352980361,-0.17116541228452462 l 4.730086959198344 -17.304914973465348" fill="#ff3805" stroke="none" /><path d="M 94.11515582081647 120.15858648285463 l -8.37918805777676 28.702983796289825 a50.90103796388455,50.90103796388455 0 0,0 -0.838958241250836,-0.2527712360094833 l 8.872021273467842 -28.554497191174615" fill="#fcff18" stroke="none" /><path d="M 93.76903079525671 120.05430185196036 l -6.385835324036498 20.552736654139043 a42.52193942840893,42.52193942840893 0 0,0 -0.6971141005017683,-0.22319392084294762 l 6.738670769629207 -20.439769886636387" fill="#ff780b" stroke="none" /><path d="M 93.42475214034765 119.94407469862007 l -7.017462026809406 21.285400922485746 a43.412341817147734,43.412341817147734 0 0,0 -0.707683741337363,-0.24008474811434513 l 7.382815501083995 -21.161453187473278" fill="#ff870c" stroke="none" /><path d="M 92.7421414339146 119.70592522655815 l -7.4776685866422286 20.302734848804253 a42.636001706242,42.636001706242 0 0,0 -0.6865000878378955,-0.2595755917428386 l 7.826038895240407 -20.17101100695478" fill="#ff7a0b" stroke="none" /><path d="M 92.06813273071674 119.44442032107085 l -7.119056698975785 17.45187180331231 a39.84804493103938,39.84804493103938 0 0,0 -0.632879060368053,-0.2645434985618586 l 7.418407218841301 -17.32674326173048" fill="#ff4806" stroke="none" /><path d="M 91.40352486487194 119.15986991738527 l -17.118634091070014 38.154103535754906 a62.8184558509882,62.8184558509882 0 0,0 -0.9827558668343348,-0.45113501733224465 l 17.772857953671767 -37.85378144808858" fill="#51ff2b" stroke="none" /><path d="M 90.10565033884886 118.52300852407294 l -7.0460487477476645 13.190762959187662 a35.954699274847144,35.954699274847144 0 0,0 -0.5433905407599817,-0.2962998486989841 l 7.272062100376287 -13.067522458728911" fill="#ff0100" stroke="none" /><line stroke="#e1ed5e" stroke-width="0.3" x1="58.666819895761336" x2="56.23545636021788" y1="174.27360380694188" y2="178.64263932499728" /><path d="M 58.180547188652646 175.14741091055294 a86.0,86.0 0 0,1 -31.652253787137756,-30.449443065178592" fill="none" id="id32" stroke="none" /><text fill="#e1ed5e" style="font-size:6.75px; font-family:Arial;" text-anchor="middle"><textPath startOffset="22.20632615414155" xlink:href="#id32">August</textPath></text><path d="M 89.7882731507175 118.34994917583269 l -7.256961580081602 13.04038759857981 a35.92364567041092,35.92364567041092 0 0,0 -0.5377448720561575,-0.30534557263255635 l 7.480355219058967 -12.913538860152622" fill="#ff0000" stroke="none" /><path d="M 89.4739219176387 118.17145234162733 l -14.976126136148405 25.85369025537118 a50.87804635290772,50.87804635290772 0 0,0 -0.7540420325872442,-0.44550132391797437 l 15.41893603976403 -25.592070359159457" fill="#fcff18" stroke="none" /><path d="M 88.54995079064634 117.60387380957326 l -12.233139451028508 18.80783560431302 a43.4362292051756,43.4362292051756 0 0,0 -0.6232588024214099,-0.41306194898117315 l 12.55507295218988 -18.594475634240528" fill="#ff880c" stroke="none" /><path d="M 88.24862548938628 117.40417183066458 l -12.389654769828047 18.349485870094956 a43.14062277833072,43.14062277833072 0 0,0 -0.6118636898860346,-0.4208454251746081 l 12.703675344336972 -18.133499655555248" fill="#ff830c" stroke="none" /><path d="M 87.95078237400918 117.19931262002967 l -8.920327230662078 12.733067114845516 a36.54680790558794,36.54680790558794 0 0,0 -0.5121298486176565,-0.3653910490978685 l 9.138184407128621 -12.57763180390343" fill="#ff0c01" stroke="none" /><path d="M 87.36589467227662 116.77436683061367 l -26.9388658459462 35.76687117757465 a65.77690885823972,65.77690885823972 0 0,0 -0.8985478799967269,-0.6889681983342723 l 27.550542454436414 -35.29786363741301" fill="#30ff34" stroke="none" /><path d="M 86.79598089348748 116.32954008644616 l -13.93997467167005 17.239703560623166 a43.17048201336556,43.17048201336556 0 0,0 -0.5738176711930739,-0.4722128780837311 l 14.234662471407814 -16.997195563682254" fill="#ff830c" stroke="none" /><path d="M 86.24171649860922 115.8653595955263 l -16.666244318228173 19.21867354956438 a46.43857528792834,46.43857528792834 0 0,0 -0.5994062358055303,-0.528906311330368 l 16.99459290694029 -18.92894409646172" fill="#ffba11" stroke="none" /><path d="M 85.97065885151581 115.62618273729859 l -16.13384206013652 17.970221239765525 a45.15014929617517,45.15014929617517 0 0,0 -0.5738378661327586,-0.5241872851477868 l 16.440779475736132 -17.689841188031163" fill="#ffa50f" stroke="none" /><path d="M 85.44109423537348 115.13401014063109 l -22.76347950378772 23.66268009532713 a53.834409213706806,53.834409213706806 0 0,0 -0.6622915325801016,-0.6481916585195254 l 23.167420988743615 -23.267338333885036" fill="#cfff1d" stroke="none" /><path d="M 85.18274418774928 114.88116024355367 l -15.5028146123796 15.569675748068427 a42.971619508033555,42.971619508033555 0 0,0 -0.519668839552936,-0.5264217908327403 l 15.76852407698807 -15.300513463255022" fill="#ff800b" stroke="none" /><path d="M 84.43433777217949 114.09645910891817 l -27.612285220288445 25.00603211188157 a58.25238162946111,58.25238162946111 0 0,0 -0.6666878291213661,-0.7490308435270129 l 28.03863189905815 -24.527027098613694" fill="#8fff24" stroke="none" /><path d="M 84.19399662182784 113.82643327865904 l -13.967625621404807 12.218297003677788 a39.55751457415043,39.55751457415043 0 0,0 -0.4439059339124588,-0.5163628878583885 l 14.175874064888045 -11.976057016657869" fill="#ff4306" stroke="none" /><path d="M 83.72743513129214 113.27417163493432 l -34.7084808183544 28.31307389387883 a65.79183847575715,65.79183847575715 0 0,0 -0.7083026767785006,-0.8837164957964777 l 35.19070140718776 -27.711429564504094" fill="#30ff34" stroke="none" /><path d="M 83.28015986056508 112.70617746262583 l -23.792667723514672 18.08114526712721 a50.883421015214,50.883421015214 0 0,0 -0.5239507860262174,-0.7019177006958527 l 24.100379776235975 -17.66891468692205" fill="#fcff18" stroke="none" /><path d="M 82.85270091963577 112.12312394758628 l -20.014528387702256 14.150252308507863 a45.511446040096686,45.511446040096686 0 0,0 -0.44674705716404883,-0.6435724558148094 l 20.255136352028437 -13.80363859050604" fill="#ffab0f" stroke="none" /><path d="M 82.44556493220864 111.52570212397912 l -13.877813021032276 9.111745174082737 a37.60173467936869,37.60173467936869 0 0,0 -0.3505827037527178,-0.5441121416449881 l 14.032600588162039 -8.8715114325163" fill="#ff1f03" stroke="none" /><line stroke="#e1ed5e" stroke-width="0.3" x1="26.63291911575756" x2="22.317208475507996" y1="142.92168965132927" y2="145.44649492493687" /><path d="M 25.769776987707644 143.4266507060508 a86.0,86.0 0 0,1 -11.730757126820373,-40.83630448921669" fill="none" id="id33" stroke="none" /><text fill="#e1ed5e" style="font-size:6.75px; font-family:Arial;" text-anchor="middle"><textPath startOffset="21.46611528233685" xlink:href="#id33">September</textPath></text><path d="M 81.35079622478065 109.6543875284942 l -26.524932501620462 13.731523373564665 a50.86849139769657,50.86849139769657 0 0,0 -0.39585697762749633,-0.78106337182026 l 26.757368149034225 -13.27290579004172" fill="#fcff18" stroke="none" /><path d="M 81.18737489456691 109.33194174019688 l -13.383097672046468 6.638642245777482 a35.93917247262903,35.93917247262903 0 0,0 -0.2701372064174491,-0.5565626572174945 l 13.495388135078635 -6.4072906325947026" fill="#ff0000" stroke="none" /><path d="M 81.02952815118164 109.00673069616217 l -17.732387591942548 8.41891761646098 a40.62946111190104,40.62946111190104 0 0,0 -0.29451596596907126,-0.6343611893270297 l 17.874678174751445 -8.112436359855124" fill="#ff5608" stroke="none" /><path d="M 80.87730276802145 108.67885076344099 l -36.73091382152682 16.670353329066455 a61.33684060855965,61.33684060855965 0 0,0 -0.42806956312385164,-0.9651838577800429 l 37.01242446938195 -16.035621134793715" fill="#65ff29" stroke="none" /><path d="M 80.58989483394504 108.01547362559985 l -27.593094191698768 11.394668748577745 a50.85326318782881,50.85326318782881 0 0,0 -0.3271496625312709,-0.8119586330540569 l 27.785146468487426 -10.918010747680883" fill="#fdff18" stroke="none" /><path d="M 80.32549172779594 107.34259656027581 l -27.96560845948663 10.436864679904053 a50.84968007962462,50.84968007962462 0 0,0 -0.2989858012133128,-0.8226805156469822 l 28.141118521705167 -9.953936367250954" fill="#fdff18" stroke="none" /><path d="M 80.0844068197444 106.66101706037122 l -43.27259406589506 14.47305559571318 a66.62879283378359,66.62879283378359 0 0,0 -0.3544263078555535,-1.0908120128288499 l 43.515312624766864 -13.726044682906528" fill="#31ff41" stroke="none" /><path d="M 79.86692584326677 105.97154293290107 l -15.821911113929264 4.692836313115917 a37.50319920375373,37.50319920375373 0 0,0 -0.17824263908865817,-0.6204860099050582 l 15.900346389904028 -4.419792827706263" fill="#ff1e03" stroke="none" /><path d="M 79.67330655649465 105.27499134158121 l -22.15907274724235 5.750513097668582 a43.893075501208585,43.893075501208585 0 0,0 -0.18349120999042223,-0.7329561724524868 l 22.254775271527834 -5.368229085818704" fill="#ff8f0d" stroke="none" /><path d="M 79.58551787078972 104.9243191809786 l -29.40695555965156 7.093456223872349 a51.250391013792125,51.250391013792125 0 0,0 -0.1994846646335776,-0.8593747142427232 l 29.524700790215693 -6.586212852281052" fill="#f6ff19" stroke="none" /><path d="M 79.4281124754447 104.21870165774334 l -47.69881556418643 9.781653338947914 a69.6914545713067,69.6914545713067 0 0,0 -0.2308780555023383,-1.1772422309446802 l 47.86012355266444 -8.959147380935278" fill="#36ff6f" stroke="none" /><path d="M 79.29508885075956 103.50808413554451 l -29.44260150768571 4.988532552194034 a50.86222095833926,50.86222095833926 0 0,0 -0.1388253940295426,-0.8644658611411629 l 29.524108656076542 -4.480987461359657" fill="#fcff18" stroke="none" /><path d="M 79.23777060512086 103.15116336523772 l -17.708265750772437 2.6876515635402365 a38.91106213564624,38.91106213564624 0 0,0 -0.0948057819105915,-0.6630714178710948 l 17.751905583699628 -2.382434673688741" fill="#ff3705" stroke="none" /><path d="M 79.1416061653843 102.43462659150553 l -29.663228132384372 3.462341567314095 a50.86460969714204,50.86460969714204 0 0,0 -0.09402128969001583,-0.8705203719546586 l 29.71843172357544 -2.9512248734746547" fill="#fcff18" stroke="none" /><path d="M 79.07016306316243 101.71520430193888 l -41.68439058125659 3.4160441031832924 a62.82412910564482,62.82412910564482 0 0,0 -0.07904903285177278,-1.0785612485133667 l 41.7370161727727 -2.6980097181731653" fill="#51ff2b" stroke="none" /><line stroke="#e1ed5e" stroke-width="0.3" x1="15.007084014347285" x2="10.007500721073583" y1="101.09737516637583" y2="101.16192664675087" /><path d="M 14.007167355692545 101.11028546245083 a86.0,86.0 0 0,1 10.666146001902534,-42.60595125391555" fill="none" id="id34" stroke="none" /><text fill="#e1ed5e" style="font-size:6.75px; font-family:Arial;" text-anchor="middle"><textPath startOffset="22.20632615414155" xlink:href="#id34">October</textPath></text><path d="M 79.00175016825051 100.2711162175752 l -33.15740985447093 0.4281076573697472 a54.16017346793687,54.16017346793687 0 0,0 -0.004012244222145541,-0.9323042555954265 l 33.159866395982576 0.1427060764293546" fill="#caff1d" stroke="none" /><path d="M 79.00486145842228 99.54816195383935 l -41.45592050716474 -0.8921761619554845 a62.46551969287644,62.46551969287644 0 0,0 0.03238779354299805,-1.074793191507055 l 41.4344210191661 1.6056395008875337" fill="#56ff2b" stroke="none" /><path d="M 79.01574976396665 99.18683210126434 l -20.200138056020613 -0.782782497941152 a41.21529930328451,41.21529930328451 0 0,0 0.0335735741264566,-0.708685086458308 l 20.183670873660656 1.1303786910224691" fill="#ff6108" stroke="none" /><path d="M 79.05617556472873 98.46500227214037 l -22.358344072233276 -1.638669549377239 a43.418313664154695,43.418313664154695 0 0,0 0.06104514869624526,-0.7449054357858231 l 22.326824439717534 2.0232889023708407" fill="#ff870c" stroke="none" /><path d="M 79.21141760316559 97.0276538004421 l -29.563060833490603 -4.226918884526997 a50.863713920091,50.863713920091 0 0,0 0.1313836532359173,-0.8656541191464394 l 29.485921286815383 4.735172116065528" fill="#fcff18" stroke="none" /><path d="M 79.26566170972629 96.67025291283419 l -30.519247828936944 -4.90111500729994 a51.910280108062,51.910280108062 0 0,0 0.14927453255665046,-0.8810267410961654 l 30.43036143486007 5.425727536711934" fill="#ecff1a" stroke="none" /><path d="M 79.32604984820605 96.31383870115002 l -30.496501613790166 -5.437520317776078 a51.97746338689038,51.97746338689038 0 0,0 0.1646306357228898,-0.8794634390118394 l 30.398385254157414 5.9616618342504895" fill="#ebff1a" stroke="none" /><path d="M 79.46518482838121 95.60439243477599 l -29.189920050508253 -6.2482877167373765 a50.85117304137636,50.85117304137636 0 0,0 0.19058441647080893,-0.8543525691900083 l 29.078041247035408 6.749818455477343" fill="#fdff18" stroke="none" /><path d="M 79.54389044137918 95.25157060432595 l -18.89710561671542 -4.386541416706142 a40.399545002132804,40.399545002132804 0 0,0 0.16307410955085685,-0.676047464190013 l 18.81879870690375 4.711174112555552" fill="#ff5207" stroke="none" /><path d="M 79.71946130924805 94.55025226153421 l -28.8345256056171 -7.748358813595164 a50.85744348073368,50.85744348073368 0 0,0 0.23446063543374332,-0.8434796524452157 l 28.696878199616997 8.243549769459323" fill="#fdff18" stroke="none" /><path d="M 79.91906864156998 93.8553929516997 l -38.60289946907066 -11.812183604865654 a61.36968576709797,61.36968576709797 0 0,0 0.3177912757162102,-1.0074851883176317 l 38.39385270958624 12.4749189596097" fill="#64ff29" stroke="none" /><path d="M 80.14247586403 93.16781622104843 l -28.20824408258522 -9.705334176310757 a50.83116735390303,50.83116735390303 0 0,0 0.2917876487311426,-0.8249229755103006 l 28.03700335304427 10.189454778247667" fill="#fdff18" stroke="none" /><path d="M 80.38941819471856 92.48833698450439 l -27.883665299703452 -10.68059578486509 a50.85923503483578,50.85923503483578 0 0,0 0.3201866152232554,-0.8148400113195595 l 27.695685134598506 11.158984801080413" fill="#fcff18" stroke="none" /><path d="M 80.65960295795068 91.81776055985345 l -41.25474711002757 -17.453427567336615 a65.79482439926062,65.79482439926062 0 0,0 0.45025369097348633,-1.0392475969052017 l 40.94820270921141 18.160974308828415" fill="#30ff34" stroke="none" /><path d="M 80.803312248108 91.48605970444005 l -13.648400080447269 -6.0532142271986915 a35.93051329446894,35.93051329446894 0 0,0 0.25561597316719764,-0.5632159136926927 l 13.54218179031672 6.2872521497334555" fill="#ff0000" stroke="none" /><path d="M 81.10775173730289 90.83032412892265 l -17.894314204742894 -8.685311505073466 a40.89072941845585,40.89072941845585 0 0,0 0.3127945830526786,-0.6305747924500172 l 17.742159608736806 8.992045886022446" fill="#ff5b08" stroke="none" /><line stroke="#e1ed5e" stroke-width="0.3" x1="26.266209847984243" x2="21.928928074336255" y1="57.711370442889674" y2="55.22380399835377" /><path d="M 25.398753493254645 57.213857153982495 a86.0,86.0 0 0,1 29.58750427330803,-30.492523968695096" fill="none" id="id35" stroke="none" /><text fill="#e1ed5e" style="font-size:6.75px; font-family:Arial;" text-anchor="middle"><textPath startOffset="21.46611528233685" xlink:href="#id35">November</textPath></text><path d="M 81.78341655067845 89.55222093294921 l -31.203637254937668 -17.896259692984618 a56.97142044646666,56.97142044646666 0 0,0 0.4952181730564766,-0.8464883850828586 l 30.890959407410865 18.43072749042137" fill="#a1ff22" stroke="none" /><path d="M 81.96595687620814 89.24020034530311 l -23.19578474304297 -13.83949206261739 a48.01066401251244,48.01066401251244 0 0,0 0.4295450134161692,-0.7060590607995806 l 22.954123931340586 14.236718896624046" fill="#ffd413" stroke="none" /><path d="M 82.15384107792192 88.93136811851018 l -22.74807983856755 -14.108925222690164 a47.76820702402957,47.76820702402957 0 0,0 0.4394047320882039,-0.6950327628888842 l 22.501847510233382 14.498405633293263" fill="#ffd013" stroke="none" /><path d="M 82.34701348167596 88.62581576622439 l -23.415997615447885 -15.087411448442001 a48.85568036399829,48.85568036399829 0 0,0 0.46157768409977373,-0.7030144799086325 l 23.152823295990192 15.4882439923283" fill="#ffe215" stroke="none" /><path d="M 82.95767976084542 87.72973835380427 l -12.168066412756254 -8.760858645865474 a35.99381487274278,35.99381487274278 0 0,0 0.36634399793180805,-0.499692801473325 l 12.015459802310811 8.969013891010299" fill="#ff0100" stroke="none" /><path d="M 83.17141714833178 87.43820079747576 l -26.679034582858687 -19.91472949927264 a54.29215128679085,54.29215128679085 0 0,0 0.5654761782577984,-0.7441003662147104 l 26.332282464376778 20.371014641368376" fill="#c8ff1d" stroke="none" /><path d="M 83.39014120810768 87.1503855733568 l -12.895608127594148 -9.976219202872159 a37.304038106071374,37.304038106071374 0 0,0 0.39728075713285105,-0.5045062170661722 l 12.721973289867327 10.196717813891379" fill="#ff1a02" stroke="none" /><path d="M 83.84228863543731 86.58626213691792 l -22.969543327583928 -19.068754607577795 a50.85326318782881,50.85326318782881 0 0,0 0.5649298367269711,-0.668698738641622 l 22.637902877369836 19.461312295848533" fill="#fdff18" stroke="none" /><path d="M 84.31358615837235 86.03803664274999 l -22.299331287815885 -19.847904656540585 a50.852964595478454,50.852964595478454 0 0,0 0.5876092977438077,-0.6488528629732572 l 21.954378349456032 20.228810306783398" fill="#fdff18" stroke="none" /><path d="M 84.80347519578584 85.50635884689758 l -30.24179740648107 -28.843025960304477 a62.79098535475615,62.79098535475615 0 0,0 0.7527016633850595,-0.7757252284624556 l 29.74083147939289 29.359315384317057" fill="#52ff2b" stroke="none" /><path d="M 85.31137513191541 84.99185889309783 l -14.621583085308316 -14.939640988953713 a41.904151855538174,41.904151855538174 0 0,0 0.5198444628846228,-0.5000899614227736 l 14.362255378811266 15.189114037138799" fill="#ff6d0a" stroke="none" /><path d="M 85.83668400450813 84.49514656593479 l -20.13414147466631 -22.041230505963405 a50.852964595478454,50.852964595478454 0 0,0 0.6513756535407039,-0.5848114931823247 l 19.75175483352964 22.384541007915008" fill="#fdff18" stroke="none" /><path d="M 86.10567301691215 84.25364557470407 l -15.806500889945616 -17.91340923096122 a44.89007535902175,44.89007535902175 0 0,0 0.5837979980839288,-0.5062638710973786 l 15.495809093214914 18.182838095478278" fill="#ffa00e" stroke="none" /><path d="M 86.65592168130627 83.78471172551755 l -22.436190262839943 -27.263725841853393 a56.3085454286933,56.3085454286933 0 0,0 0.7537209881801009,-0.6094566213270233 l 21.96356587609534 27.64588856044455" fill="#abff21" stroke="none" /><path d="M 86.93701828274178 83.55741782278169 l -15.153838893302245 -19.074377251424856 a45.36125408787146,45.36125408787146 0 0,0 0.6155466986754661,-0.48044396195614697 l 14.823259639467354 19.332399602604227" fill="#ffa80f" stroke="none" /><path d="M 87.51073957382395 83.11751280151077 l -11.178713832330187 -15.110942259987167 a39.79638845442912,39.79638845442912 0 0,0 0.5542209617000992,-0.40266509858715355 l 10.916947554276305 15.301126593390988" fill="#ff4806" stroke="none" /><path d="M 88.09926311788651 82.69761687909137 l -10.793577470487314 -15.692693191147422 a40.04631025167069,40.04631025167069 0 0,0 0.5713184075114195,-0.385756739062134 l 10.521854368569354 15.876161842508221" fill="#ff4c07" stroke="none" /><path d="M 88.70189139769569 82.29822771554957 l -19.80422051033806 -31.029069916494365 a57.810464950945544,57.810464950945544 0 0,0 0.8434294882583561,-0.5281554681710149 l 19.26717186970746 31.36536972598831" fill="#95ff23" stroke="none" /><path d="M 89.00827224532344 82.1063720568725 l -7.812831941650521 -12.718647246935074 a35.92663159391441,35.92663159391441 0 0,0 0.5297260940237801,-0.3191540445036106 l 7.592743781409092 12.851247900897304" fill="#ff0000" stroke="none" /><line stroke="#e1ed5e" stroke-width="0.3" x1="56.762969772571076" x2="54.21961505331055" y1="26.818313649435495" y2="22.513508569990535" /><path d="M 56.25429882871897 25.957352633546506 a86.0,86.0 0 0,1 42.265352541879196,-11.944610805530505" fill="none" id="id36" stroke="none" /><text fill="#e1ed5e" style="font-size:6.75px; font-family:Arial;" text-anchor="middle"><textPath startOffset="22.20632615414155" xlink:href="#id36">December</textPath></text><path d="M 89.63071344664047 81.73862282372117 l -14.744349957090373 -25.966312571258182 a50.860429404237166,50.860429404237166 0 0,0 0.7650278318214444,-0.42573716013057755 l 14.295198036196883 26.216265128948944" fill="#fcff18" stroke="none" /><path d="M 90.26544431104013 81.39251694778311 l -13.839872363701094 -26.454745206756254 a50.85624911133229,50.85624911133229 0 0,0 0.7791649901021152,-0.39911857086270597 l 13.382446886010214 26.689056302931462" fill="#fdff18" stroke="none" /><path d="M 90.91171255644093 81.06846463323043 l -27.264862330677197 -56.79460610030868 a84.0,84.0 0 0,0 1.3088871548015661,-0.6145400694399696 l 26.28319696457602 57.25551115238866" fill="#4dd2ff" stroke="none" /><path d="M 92.23578459929587 80.48803036053334 l -9.816604544945436 -24.669754760571802 a47.55113038532632,47.55113038532632 0 0,0 0.7631205458643046,-0.2960789160063385 l 9.390500834081456 24.835076380468692" fill="#ffcd13" stroke="none" /><path d="M 92.57280143429618 80.3572730644239 l -9.089421023036078 -24.038810000640353 a46.699843594483156,46.699843594483156 0 0,0 0.7543529681383498,-0.27783456441193205 l 8.674285729125158 24.191707832858608" fill="#ffbf11" stroke="none" /><path d="M 92.91201910852362 80.23233633223022 l -6.710049306903137 -18.713650604295644 a40.88027868619366,40.88027868619366 0 0,0 0.6644368949764768,-0.23180898609686842 l 6.3869304078633755 18.826380443564723" fill="#ff5b08" stroke="none" /><path d="M 93.25333710446033 80.11325718540243 l -4.812741041791912 -14.186234707924932 a35.98037821697711,35.98037821697711 0 0,0 0.5882229478144416,-0.19392785762494408 l 4.567835271735061 14.26697628980911" fill="#ff0100" stroke="none" /><path d="M 94.63758080256005 79.69619591428918 l -4.117541929750458 -15.5903075791361 a37.12488269586237,37.12488269586237 0 0,0 0.6192626865225078,-0.1578638472534727 l 3.8485703545429506 15.658874422558435" fill="#ff1702" stroke="none" /><path d="M 94.98787191387505 79.60689891045804 l -4.6308557235375964 -18.841798788545947 a40.402530925636285,40.402530925636285 0 0,0 0.6767930174477396,-0.16017504092448098 l 4.3058390191273235 18.918719741611298" fill="#ff5207" stroke="none" /><path d="M 95.33964822691252 79.52364482259891 l -4.970467602719921 -21.838922250204114 a43.39741219963031,43.39741219963031 0 0,0 0.7298148510099141,-0.15950925901815033 l 4.593810027556486 21.92124500731813" fill="#ff870c" stroke="none" /><path d="M 96.04723909329186 79.375362276772 l -7.024257900190294 -36.65103402031902 a58.31807194653775,58.31807194653775 0 0,0 0.9875329005743482,-0.1804653254285186 l 6.392329878513053 36.76651482709827" fill="#8eff24" stroke="none" /><path d="M 96.40284397218896 79.31037775812273 l -3.158367437414463 -18.16585899414423 a39.43837622636144,39.43837622636144 0 0,0 0.6698341408214111,-0.11052837259592105 l 2.8452040904541662 18.217533629679778" fill="#ff4106" stroke="none" /><path d="M 96.75951476605007 79.25152402106235 l -3.7116526163240398 -23.765309696563357 a45.053405374662304,45.053405374662304 0 0,0 0.7672616809191368,-0.11307442717031194 l 3.302021954976254 23.825678607894638" fill="#ffa30f" stroke="none" /><path d="M 97.47563105711357 79.15227682838746 l -2.870379416502595 -23.705281132288565 a44.87843025735817,44.87843025735817 0 0,0 0.7677060210790472,-0.08626071652735741 l 2.4619066919138297 23.751177802286524" fill="#ffa00e" stroke="none" /><path d="M 97.83486435360386 79.11191278185805 l -1.5441945687932692 -14.89757507268591 a35.97739229347363,35.97739229347363 0 0,0 0.6165409275827872,-0.058547990066342905 l 1.2875285141202455 14.921948607267433" fill="#ff0100" stroke="none" /><path d="M 98.55514903715128 79.0497635885617 l -2.622056278832748 -38.01962993977951 a59.1099388596616,59.1099388596616 0 0,0 1.0156718681588306,-0.0612681007668958 l 1.9672223618342946 38.05913130992671" fill="#83ff25" stroke="none" /><path d="M 98.91598698831166 79.02799685794201 l -0.7706618880195776 -14.909713594524382 a35.92961751741789,35.92961751741789 0 0,0 0.6179195597695526,-0.026608916072002338 l 0.513901495860701 14.920770237120577" fill="#ff0000" stroke="none" /></svg>